<?xml version="1.0" encoding="UTF-8" standalone="no"?>
<!-- Created with Inkscape (http://www.inkscape.org/) -->
<svg
   xmlns:svg="http://www.w3.org/2000/svg"
   xmlns="http://www.w3.org/2000/svg"
   version="1.0"
   width="175"
   height="43"
   id="svg2">
  <defs
     id="defs4" />
  <g
     transform="translate(-244.51893,-323.50597)"
     id="layer1">
    <g
       transform="matrix(1.3362569,0,0,1.3362569,246.37167,325.82189)"
       id="g2416">
      <rect
         width="4.0469999"
         height="23.938"
         x="33.055"
         y="0"
         id="rect2384"
         style="fill:#004990" />
      <path
         d="M 9.701,13.127 C 8.066,11.283 6.902,10.258 5.293,8.731 C 4.785,8.198 4.551,7.835 4.551,6.971 C 4.551,5.866 4.548,5.612 4.559,5.053 L 4.559,4.317 C 4.559,3.921 4.878,3.602 5.274,3.602 C 5.318,3.602 5.361,3.606 5.403,3.614 C 5.404,3.614 5.405,3.614 5.407,3.615 C 5.422,3.618 5.438,3.621 5.453,3.625 C 5.456,3.626 5.46,3.627 5.463,3.628 C 5.767,3.711 5.99,3.987 5.99,4.317 L 5.993,4.317 L 5.995,8.637 L 10.488,8.637 L 10.488,4.366 C 10.488,1.195 7.97,0.066 5.222,0.066 C 2.46,0.066 -0.001,1.241 0,4.388 L 0,7.73 C 0,8.84 0.245,9.427 0.635,10.125 C 1.838,12.025 4.273,13.738 5.345,15.003 C 5.934,15.667 5.983,16.205 5.983,16.754 C 5.983,17.422 5.983,19.392 5.983,19.392 C 5.983,19.392 5.988,19.627 5.983,19.821 L 5.978,20.138 C 5.978,20.217 5.966,20.294 5.944,20.368 C 5.943,20.369 5.942,20.371 5.942,20.373 C 5.896,20.514 5.813,20.64 5.7,20.726 C 5.629,20.782 5.56,20.818 5.474,20.839 C 5.406,20.86 5.333,20.872 5.258,20.872 C 4.909,20.872 4.618,20.622 4.556,20.292 C 4.546,20.249 4.541,20.203 4.541,20.157 L 4.54,20.157 L 4.54,20.147 L 4.538,20.147 L 4.528,19.665 C 4.525,19.516 4.526,19.452 4.526,19.332 L 4.526,15.001 L 0.033,15.001 L 0.033,20.059 C 0.033,23.231 2.551,24.399 5.305,24.399 C 8.059,24.399 10.576,23.231 10.576,19.901 L 10.576,16.023 C 10.577,14.461 10.284,13.777 9.701,13.127"
         id="path2386"
         style="fill:#004990" />
      <path
         d="M 21.194,11.493 L 21.194,8.928 C 21.194,6.064 18.963,4.63 16.435,4.63 C 13.873,4.63 11.706,6.064 11.706,8.928 L 11.706,19.865 C 11.706,22.734 13.873,24.17 16.435,24.17 C 18.962,24.17 21.194,22.734 21.194,19.865 L 21.194,16.378 L 17.147,16.378 L 17.147,20.032 C 17.147,20.071 17.146,20.11 17.143,20.149 L 17.143,20.343 C 17.143,20.696 16.876,20.986 16.536,21.025 C 16.533,21.025 16.531,21.025 16.528,21.026 C 16.527,21.026 16.527,21.026 16.527,21.026 C 16.497,21.03 16.467,21.032 16.435,21.032 C 16.258,21.032 16.123,20.971 16.023,20.874 C 15.869,20.748 15.772,20.558 15.772,20.344 L 15.77,20.344 L 15.77,20.275 C 15.759,20.195 15.754,20.113 15.754,20.033 L 15.754,8.77 C 15.754,8.726 15.755,8.68 15.759,8.635 L 15.759,8.445 C 15.759,8.067 16.066,7.759 16.445,7.759 C 16.824,7.759 17.131,8.067 17.131,8.445 L 17.135,8.445 L 17.135,8.547 C 17.144,8.621 17.149,8.696 17.149,8.77 L 17.149,11.494 L 21.194,11.494"
         id="path2388"
         style="fill:#004990" />
      <path
         d="M 29.099,4.636 C 28.016,4.636 26.645,5.372 26.491,6.542 L 26.336,6.542 L 26.336,0 L 22.289,0 L 22.289,23.938 L 26.336,23.938 L 26.336,9.114 C 26.336,9.07 26.337,9.026 26.34,8.982 L 26.34,8.799 C 26.34,8.507 26.524,8.257 26.78,8.157 C 26.791,8.153 26.802,8.149 26.813,8.146 C 26.819,8.144 26.825,8.142 26.831,8.139 C 26.843,8.135 26.854,8.132 26.866,8.13 C 26.918,8.117 26.973,8.11 27.029,8.11 C 27.41,8.11 27.719,8.418 27.719,8.798 L 27.722,8.798 L 27.722,8.954 C 27.726,9.007 27.729,9.061 27.729,9.113 L 27.729,23.936 L 31.776,23.936 L 31.776,8.814 C 31.775,6.609 31.68,4.636 29.099,4.636"
         id="path2390"
         style="fill:#004990" />
      <path
         d="M 43.836,4.863 L 43.836,19.687 C 43.836,19.727 43.835,19.767 43.832,19.808 L 43.832,20 C 43.832,20.381 43.522,20.691 43.141,20.691 C 43.088,20.691 43.037,20.684 42.989,20.672 C 42.935,20.661 42.887,20.645 42.843,20.621 C 42.611,20.51 42.449,20.273 42.449,19.999 L 42.446,19.999 L 42.446,19.798 C 42.444,19.76 42.443,19.723 42.443,19.687 L 42.443,4.863 L 38.396,4.863 L 38.396,20.753 C 38.396,22.76 39.128,24.165 41.232,24.165 C 42.443,24.165 43.813,23.094 43.813,21.79 L 43.876,21.79 L 43.835,23.932 L 47.883,23.932 L 47.883,4.863 L 43.836,4.863"
         id="path2392"
         style="fill:#004990" />
      <path
         d="M 61.428,4.636 C 59.798,4.636 59.348,5.338 58.641,6.61 C 58.162,5.072 57.461,4.636 56.028,4.636 C 54.4,4.636 53.949,5.305 53.306,6.576 L 53.24,6.576 L 53.24,4.869 L 49.193,4.869 L 49.193,23.937 L 53.24,23.937 L 53.24,9.114 C 53.24,9.061 53.242,9.008 53.247,8.954 L 53.247,8.824 C 53.247,8.428 53.568,8.106 53.965,8.106 C 54.362,8.106 54.685,8.427 54.685,8.824 L 54.688,8.824 L 54.688,9.03 C 54.689,9.058 54.69,9.086 54.69,9.114 L 54.69,23.937 L 58.737,23.937 L 58.737,9.114 C 58.737,9.06 58.739,9.006 58.743,8.952 L 58.743,8.824 C 58.743,8.428 59.065,8.106 59.462,8.106 C 59.859,8.106 60.181,8.427 60.181,8.824 L 60.184,8.824 L 60.184,9.037 C 60.185,9.063 60.186,9.088 60.186,9.114 L 60.186,23.937 L 64.233,23.937 L 64.233,8.181 C 64.231,6.743 63.977,4.636 61.428,4.636"
         id="path2394"
         style="fill:#004990" />
      <path
         d="M 72.123,4.636 C 70.912,4.636 69.921,5.44 69.581,6.542 L 69.52,6.542 L 69.52,0 L 65.473,0 L 65.473,23.932 L 69.52,23.932 L 69.52,21.924 L 69.582,21.924 C 69.922,23.262 70.913,24.165 72.124,24.165 C 74.642,24.165 74.96,22.024 74.96,19.888 L 74.96,8.813 C 74.959,6.676 74.641,4.636 72.123,4.636 M 70.913,10.465 L 70.913,10.465 L 70.912,19.689 C 70.912,19.693 70.912,19.697 70.912,19.701 L 70.912,19.994 C 70.912,20.377 70.6,20.688 70.218,20.688 C 70.209,20.688 70.202,20.687 70.196,20.687 C 70.063,20.686 69.953,20.651 69.865,20.59 C 69.66,20.469 69.522,20.247 69.522,19.993 L 69.519,19.993 L 69.519,18.329 L 69.52,18.329 L 69.52,9.112 C 69.52,9.084 69.521,9.056 69.522,9.029 L 69.522,8.802 C 69.522,8.419 69.833,8.11 70.216,8.11 C 70.599,8.11 70.91,8.42 70.91,8.802 L 70.913,8.802 L 70.913,10.465 L 70.913,10.465 z"
         id="path2396"
         style="fill:#004990" />
      <path
         d="M 85.655,8.934 C 85.655,6.068 83.425,4.632 80.896,4.632 C 78.334,4.632 76.167,6.068 76.167,8.934 L 76.167,19.86 C 76.167,22.734 78.334,24.17 80.896,24.17 C 83.424,24.17 85.655,22.734 85.655,19.86 L 85.655,16.378 L 81.608,16.378 L 81.608,20.028 C 81.608,20.051 81.608,20.076 81.607,20.099 L 81.607,20.346 C 81.607,20.73 81.295,21.039 80.912,21.039 C 80.529,21.039 80.219,20.729 80.219,20.346 L 80.215,20.346 L 80.215,20.041 C 80.215,20.036 80.215,20.032 80.215,20.027 L 80.215,15.04 L 85.655,15.04 L 85.655,8.934 M 81.608,12.19 L 80.214,12.19 L 80.214,8.768 C 80.214,8.733 80.215,8.698 80.218,8.662 L 80.218,8.456 C 80.218,8.073 80.528,7.763 80.911,7.763 C 81.293,7.763 81.604,8.074 81.604,8.456 L 81.607,8.456 L 81.607,8.728 C 81.607,8.741 81.607,8.753 81.607,8.767 L 81.607,12.19 L 81.608,12.19 z"
         id="path2398"
         style="fill:#004990" />
      <path
         d="M 93.877,4.636 C 92.476,4.636 91.605,5.338 91.017,6.509 L 90.954,6.509 L 90.954,4.869 L 86.907,4.869 L 86.907,23.937 L 90.954,23.937 L 90.954,9.114 C 90.954,9.092 90.955,9.069 90.955,9.047 L 90.955,8.803 C 90.955,8.515 91.132,8.268 91.385,8.164 C 91.421,8.147 91.46,8.135 91.503,8.127 C 91.514,8.124 91.524,8.123 91.533,8.122 C 91.537,8.121 91.54,8.12 91.543,8.12 C 91.577,8.115 91.612,8.111 91.648,8.111 C 92.03,8.111 92.34,8.421 92.34,8.802 L 92.343,8.802 L 92.343,8.998 C 92.346,9.037 92.347,9.075 92.347,9.113 L 92.347,15.142 L 96.394,15.142 L 96.394,7.98 C 96.395,5.907 95.885,4.636 93.877,4.636"
         id="path2400"
         style="fill:#004990" />
      <path
         d="M 117.526,8.934 C 117.526,6.068 115.296,4.632 112.767,4.632 C 110.205,4.632 108.038,6.068 108.038,8.934 L 108.038,19.86 C 108.038,22.734 110.205,24.17 112.767,24.17 C 115.295,24.17 117.526,22.734 117.526,19.86 L 117.526,16.378 L 113.479,16.378 L 113.479,18.667 L 113.483,18.667 L 113.483,20.341 C 113.483,20.729 113.17,21.04 112.784,21.04 C 112.397,21.04 112.084,20.728 112.084,20.341 L 112.081,20.341 L 112.081,18.667 L 112.086,18.667 L 112.086,15.04 L 117.526,15.04 L 117.526,8.934 M 113.479,10.119 L 113.479,12.19 L 112.085,12.19 L 112.085,10.119 L 112.084,10.119 L 112.084,8.454 C 112.084,8.07 112.397,7.759 112.78,7.759 C 113.163,7.759 113.475,8.071 113.475,8.454 L 113.478,8.454 L 113.478,10.119 L 113.479,10.119 z"
         id="path2402"
         style="fill:#004990" />
      <path
         d="M 125.588,4.636 C 124.187,4.636 123.315,5.338 122.727,6.509 L 122.665,6.509 L 122.665,4.869 L 118.618,4.869 L 118.618,23.937 L 122.665,23.937 L 122.665,10.462 L 122.663,10.462 L 122.663,8.798 C 122.663,8.415 122.976,8.105 123.358,8.105 C 123.742,8.105 124.053,8.416 124.053,8.798 L 124.056,8.798 L 124.056,9.04 C 124.057,9.065 124.057,9.089 124.057,9.114 L 124.057,15.143 L 128.105,15.143 L 128.105,7.98 C 128.105,5.907 127.595,4.636 125.588,4.636"
         id="path2404"
         style="fill:#004990" />
      <path
         d="M 102.893,4.869 L 102.893,6.643 L 102.738,6.643 C 102.274,5.572 101.213,4.635 100.002,4.635 C 98.154,4.635 97.453,6.207 97.453,8.046 L 97.453,19.541 C 97.453,21.368 98.154,22.763 100.002,22.763 C 101.213,22.763 102.274,21.999 102.738,20.937 L 102.893,20.937 L 102.893,25.189 C 102.893,25.219 102.892,25.251 102.89,25.283 L 102.89,25.509 C 102.89,25.891 102.58,26.2 102.199,26.2 C 101.818,26.2 101.507,25.89 101.507,25.509 L 101.504,25.509 L 101.504,25.314 C 101.501,25.272 101.5,25.231 101.5,25.19 L 101.5,23.78 L 97.453,23.78 L 97.453,24.832 C 97.453,27.972 99.397,29.141 102.212,29.141 C 105.028,29.141 106.941,27.972 106.941,24.832 L 106.941,4.869 L 102.893,4.869 M 102.894,18.755 C 102.894,19.139 102.581,19.45 102.198,19.45 C 101.815,19.45 101.502,19.138 101.502,18.755 L 101.499,18.755 L 101.499,17.09 L 101.5,17.09 L 101.5,9.111 C 101.5,9.09 101.5,9.069 101.501,9.047 L 101.501,8.802 C 101.501,8.419 101.813,8.11 102.195,8.11 C 102.577,8.11 102.889,8.42 102.889,8.802 L 102.892,8.802 L 102.892,9.056 C 102.893,9.075 102.893,9.093 102.893,9.112 L 102.893,17.091 L 102.894,17.091 L 102.894,18.755 L 102.894,18.755 z"
         id="path2406"
         style="fill:#004990" />
    </g>
  </g>
</svg>
